<svg width="48" height="47" viewBox="0 0 48 47" fill="none" xmlns="http://www.w3.org/2000/svg">
<ellipse cx="24" cy="23.3994" rx="24" ry="23.3994" fill="#F4D150"/>
<mask id="mask0_61_1475" style="mask-type:alpha" maskUnits="userSpaceOnUse" x="0" y="0" width="48" height="47">
<ellipse cx="24" cy="23.3994" rx="24" ry="23.3994" fill="#FFEDEF"/>
</mask>
<g mask="url(#mask0_61_1475)">
<path d="M7.74219 12.0771V23.1339C7.74219 25.8479 9.98187 28.0481 12.7447 28.0481C15.5075 28.0481 17.7472 25.8479 17.7472 23.1339V15.7627C17.7472 14.4057 16.6273 13.3057 15.2459 13.3057C13.8645 13.3057 12.7447 14.4057 12.7447 15.7627V24.3625M21.499 13.3057H37.7571C39.1385 13.3057 40.2583 14.4057 40.2583 15.7627V45.2475C40.2583 46.6045 39.1385 47.7046 37.7571 47.7046H12.7447C11.3633 47.7046 10.2434 46.6045 10.2434 45.2475V31.7336M34.0052 23.1339H24.0003M34.0052 30.5051H24.0003M34.0052 37.8763H16.4965" stroke="black" stroke-width="2"/>
</g>
</svg>
